<svg id="Layer_1" data-name="Layer 1" xmlns="http://www.w3.org/2000/svg" viewBox="0 0 32 32"><defs><style>.cls-1,.cls-3{fill:#fff;}.cls-1{stroke:#231f20;stroke-miterlimit:10;stroke-width:0.25px;}.cls-2,.cls-4,.cls-5{fill:#231f20;}.cls-4{font-size:6.59px;}.cls-4,.cls-5{font-family:NHaasGroteskTXPro-55Rg, Neue Haas Grotesk Text Pro;}.cls-5{font-size:6.59px;}</style></defs><path class="cls-1" d="M24.94,13.61l-1.05-7,1.3-.34c1.46-.39,2.88.87,3.17,2.8h0c.29,1.93-.66,3.81-2.12,4.19Z"/><path class="cls-1" d="M8.39,13.61l1-7-1.3-.34C6.68,5.89,5.26,7.15,5,9.08H5c-.29,1.93.66,3.81,2.12,4.19Z"/><path class="cls-1" d="M26.65,13.9a7,7,0,0,1,0-1.89A10,10,0,0,0,7.08,10a10.26,10.26,0,0,0-.37,2,6.31,6.31,0,0,1-.27,2.2,5,5,0,0,1-.65.83,8.93,8.93,0,0,0-.6.91,8.27,8.27,0,0,0-1.13,4.11c0,5.52,5.65,10,12.6,10s12.6-4.47,12.6-10A8.29,8.29,0,0,0,28,15.8a9.73,9.73,0,0,0-.64-.94,8.13,8.13,0,0,1-.67-.78A1.42,1.42,0,0,1,26.65,13.9Z"/><path class="cls-1" d="M21,14.87a5.31,5.31,0,0,0-3.94,1.22.74.74,0,0,1-1.08,0A5.31,5.31,0,0,0,12,14.87a4.64,4.64,0,0,0-4.88,4.36A4.64,4.64,0,0,0,12,23.58h.14a7.68,7.68,0,0,0,0,5.6,11,11,0,0,0,8.67,0,7.43,7.43,0,0,0,0-5.6H21a4.64,4.64,0,0,0,4.88-4.35A4.64,4.64,0,0,0,21,14.87Z"/><ellipse class="cls-2" cx="21.12" cy="19.4" rx="0.98" ry="2.16"/><ellipse class="cls-2" cx="11.66" cy="19.4" rx="0.98" ry="2.16"/><circle class="cls-2" cx="15.77" cy="22.6" r="0.31"/><circle class="cls-2" cx="17.55" cy="22.6" r="0.31"/><rect class="cls-2" x="13.87" y="25.62" width="5.71" height="1.17" rx="0.44"/><path class="cls-3" d="M22.65,17.05c-1,.56-2.15,1.45-2.8.86L19.58,17l2.8-.86Z"/><path class="cls-3" d="M10.29,17.05c1.05.56,2.16,1.45,2.8.86l.28-.89-2.8-.86Z"/><text class="cls-4" transform="translate(1.52 26.79) rotate(-22.89)">!</text><text class="cls-5" transform="translate(29.61 14.5) rotate(13.98)">!</text></svg>