<svg id="Layer_1" data-name="Layer 1" xmlns="http://www.w3.org/2000/svg" viewBox="0 0 32 32"><defs><style>.cls-1{fill:#c2709a;}.cls-1,.cls-2,.cls-3,.cls-4,.cls-5,.cls-6{stroke:#000;stroke-miterlimit:10;stroke-width:0.25px;}.cls-2{fill:#e691ba;}.cls-3{fill:#eeba1d;}.cls-4{fill:#d64127;}.cls-5{fill:#fff;}.cls-6,.cls-7{fill:#231f20;}</style></defs><path class="cls-1" d="M24.73,13,23.68,6,25,5.61c1.47-.39,2.89.87,3.18,2.81h0c.3,1.94-.66,3.82-2.12,4.21Z"/><path class="cls-1" d="M8.12,13,9.17,6l-1.3-.34C6.4,5.22,5,6.48,4.68,8.42h0c-.29,1.94.67,3.82,2.13,4.21Z"/><path class="cls-2" d="M26.44,13.25a7.47,7.47,0,0,1,0-1.89,9.49,9.49,0,0,0-.37-2,10,10,0,0,0-1.88-3.55,10,10,0,0,0-15.47,0A10,10,0,0,0,6.81,9.31a10.25,10.25,0,0,0-.38,2.06,6.27,6.27,0,0,1-.26,2.2,6.4,6.4,0,0,1-.66.84,8.93,8.93,0,0,0-.6.91,8.35,8.35,0,0,0-1.13,4.13c0,5.54,5.66,10,12.64,10s12.65-4.48,12.65-10a8.3,8.3,0,0,0-1.22-4.28,10.6,10.6,0,0,0-.65-.95,6.23,6.23,0,0,1-.67-.79A1.5,1.5,0,0,1,26.44,13.25Z"/><path class="cls-3" d="M20.77,14.23a5.34,5.34,0,0,0-3.95,1.22.73.73,0,0,1-1.08,0,5.35,5.35,0,0,0-4-1.22A4.65,4.65,0,0,0,6.89,18.6,4.66,4.66,0,0,0,11.78,23l.15,0a7.68,7.68,0,0,0,0,5.62,11.09,11.09,0,0,0,8.7,0,7.48,7.48,0,0,0,0-5.62l.14,0a4.66,4.66,0,0,0,4.9-4.38A4.66,4.66,0,0,0,20.77,14.23Z"/><path class="cls-4" d="M18.81,25.77a3.37,3.37,0,0,1-5.07,0V24h5.07Z"/><ellipse class="cls-5" cx="20.9" cy="18.77" rx="0.99" ry="2.17"/><ellipse class="cls-5" cx="11.4" cy="18.77" rx="0.99" ry="2.17"/><path class="cls-6" d="M12.39,19c0,1.2-.46,2.17-1,2.17A.5.5,0,0,1,11,21a1,1,0,0,0,.71-1,1,1,0,0,0-1-1,.71.71,0,0,0-.29.05V19c0-1.2.44-2.18,1-2.18a.46.46,0,0,1,.28.1,1,1,0,0,0-.33.75,1,1,0,0,0,1,1A1.32,1.32,0,0,1,12.39,19Z"/><path class="cls-6" d="M21.88,19c0,1.2-.45,2.17-1,2.17a.5.5,0,0,1-.36-.16,1,1,0,0,0,.7-1,1,1,0,0,0-1-1,.68.68,0,0,0-.29.05V19c0-1.2.44-2.18,1-2.18a.46.46,0,0,1,.28.1,1,1,0,0,0-.33.75,1,1,0,0,0,1,1A2.62,2.62,0,0,1,21.88,19Z"/><circle class="cls-6" cx="15.53" cy="21.99" r="0.31"/><circle class="cls-6" cx="17.32" cy="21.99" r="0.31"/><polygon class="cls-7" points="2.33 27.02 1.39 25.96 0 26.24 1.06 25.29 0.79 23.9 1.73 24.96 3.12 24.69 2.06 25.63 2.33 27.02"/><polygon class="cls-7" points="29.73 14.95 29.53 13.54 28.22 13.01 29.62 12.8 30.16 11.49 30.36 12.89 31.67 13.43 30.27 13.63 29.73 14.95"/></svg>