<svg id="Layer_1" data-name="Layer 1" xmlns="http://www.w3.org/2000/svg" viewBox="0 0 258 258"><defs><style>.cls-1,.cls-2{fill:#fff;}.cls-1{stroke:#000;stroke-miterlimit:10;stroke-width:2px;}</style></defs><rect width="258" height="258"/><ellipse class="cls-1" cx="129" cy="212.04" rx="88.21" ry="15.59"/><path class="cls-2" d="M165.58,188V137.41h25.31a25.32,25.32,0,1,1,0,50.63Zm6.77-6.77h18.54a18.55,18.55,0,1,0,0-37.09H172.35Z"/><path d="M190.89,138.41a24.32,24.32,0,1,1,0,48.63H166.58V138.41h24.31m-19.54,43.86h19.54a19.55,19.55,0,1,0,0-39.09H171.35v39.09m19.54-45.86H164.58V189h26.31a26.32,26.32,0,1,0,0-52.63Zm-17.54,43.86V145.18h17.54a17.55,17.55,0,1,1,0,35.09Z"/><path class="cls-2" d="M126.93,213.63a60.12,60.12,0,0,1-60.05-60V117.67H187v35.92A60.12,60.12,0,0,1,126.93,213.63Z"/><path d="M186,118.67v34.92a59,59,0,0,1-118.09,0V118.67H186m2-2H65.88v36.92a61,61,0,0,0,122.09,0V116.67Z"/><path class="cls-2" d="M128.24,18.12s-23.57,30.42-9.13,46.39,12.93,38-4.56,41.83c0,0,17.49-20.54-6.08-38.79S128.24,18.12,128.24,18.12Z"/><path class="cls-2" d="M143.75,35s-15.81,20.4-6.12,31.11,8.67,25.51-3.06,28.06c0,0,11.73-13.77-4.08-26S143.75,35,143.75,35Z"/></svg>