<svg id="Layer_1" data-name="Layer 1" xmlns="http://www.w3.org/2000/svg" viewBox="0 0 258 258"><defs><style>.cls-1{fill:#fff;stroke:#000;stroke-miterlimit:10;stroke-width:0.75px;}</style></defs><rect width="258" height="258"/><path class="cls-1" d="M227.19,120.64c-1.64,0-3.08,1.58-3.95,4a3.69,3.69,0,0,1-3.49,2.42H202.94A74.17,74.17,0,0,0,194.53,95l11.73-6.9a2.4,2.4,0,0,1,2.75.2c1.28,1.07,2.61,1.48,3.52.94,1.49-.88,1.31-3.93-.39-6.82s-4.29-4.52-5.77-3.65c-.91.54-1.2,1.9-.89,3.53a2.42,2.42,0,0,1-1.16,2.51l-11.65,6.86a74.45,74.45,0,0,0-58.73-36.45v-20a3.69,3.69,0,0,1,2.42-3.49c2.42-.87,4-2.31,4-3.94,0-2.66-4.19-4.82-9.36-4.82s-9.36,2.16-9.36,4.82c0,1.63,1.58,3.07,4,3.94a3.69,3.69,0,0,1,2.42,3.49V55A74.42,74.42,0,0,0,68.11,85.89L55.24,78.58A2.39,2.39,0,0,1,54,76.1c.29-1.64,0-3-.94-3.52-1.5-.85-4.06.82-5.71,3.74s-1.79,6-.29,6.82c.92.53,2.24.1,3.51-1a2.4,2.4,0,0,1,2.74-.25L66,89.06a74.42,74.42,0,0,0,4.49,87.1L58.92,187.68a3.72,3.72,0,0,1-4.18.75c-2.32-1.09-4.46-1.19-5.62,0-1.88,1.88-.44,6.37,3.22,10s8.14,5.09,10,3.21c1.16-1.15,1.06-3.29,0-5.61a3.68,3.68,0,0,1,.75-4.18L74.32,180.6a74.39,74.39,0,0,0,40.06,22.05l-3.87,14.43a2.39,2.39,0,0,1-2.1,1.78c-1.66.14-2.89.78-3.17,1.8-.44,1.67,1.82,3.72,5.06,4.59s6.23.22,6.68-1.44c.27-1-.48-2.2-1.85-3.15a2.39,2.39,0,0,1-.93-2.59l4-14.8A74.32,74.32,0,0,0,175.88,187L186,197.41a2.92,2.92,0,0,1,.4,3.4c-1,1.94-1.22,3.69-.33,4.6,1.44,1.48,5.2.16,8.39-2.95s4.61-6.83,3.17-8.31c-.89-.91-2.65-.76-4.61.21a2.89,2.89,0,0,1-3.39-.49l-10-10.25a74.25,74.25,0,0,0,23.24-50.68h16.84a3.69,3.69,0,0,1,3.49,2.42c.87,2.42,2.31,4,3.95,4,2.65,0,4.81-4.19,4.81-9.36S229.84,120.64,227.19,120.64Z"/><circle class="cls-1" cx="94.93" cy="109.03" r="13.92"/><circle class="cls-1" cx="171.89" cy="129.5" r="13.92"/><circle class="cls-1" cx="149.38" cy="179.85" r="6.96"/><circle class="cls-1" cx="110.9" cy="168.39" r="10.23"/><circle class="cls-1" cx="131.37" cy="136.46" r="10.23"/><circle class="cls-1" cx="160.02" cy="91.43" r="6.96"/><circle class="cls-1" cx="118.27" cy="83.24" r="6.96"/><circle class="cls-1" cx="77.33" cy="143.83" r="6.96"/></svg>