<svg id="Layer_1" data-name="Layer 1" xmlns="http://www.w3.org/2000/svg" viewBox="0 0 258 258"><defs><style>.cls-1{fill:#fff;stroke:#000;stroke-miterlimit:10;stroke-width:0.75px;}</style></defs><rect width="258" height="258"/><circle class="cls-1" cx="120.5" cy="71.5" r="41"/><path class="cls-1" d="M120.5,107.5h0a58,58,0,0,1,58,58v58a0,0,0,0,1,0,0H62.5a0,0,0,0,1,0,0v-58a58,58,0,0,1,58-58Z"/><path d="M164.28,110.05a41,41,0,1,0-30.56,0A58,58,0,0,0,91,166v58H207V166A58,58,0,0,0,164.28,110.05Z"/><path class="cls-1" d="M158.5,103.19h5.11A57.85,57.85,0,0,1,221.46,161v63a0,0,0,0,1,0,0H100.65a0,0,0,0,1,0,0V161A57.85,57.85,0,0,1,158.5,103.19Z"/><circle class="cls-1" cx="161.05" cy="65.7" r="42.7"/></svg>