<svg id="Layer_1" data-name="Layer 1" xmlns="http://www.w3.org/2000/svg" viewBox="0 0 2302 1025.74"><defs><style>.cls-1{fill:#fff;}</style></defs><path class="cls-1" d="M2176.57,518.32a48,48,0,0,1-47.82-42.9l-.06-.55-.55.12a48.1,48.1,0,1,1,11.7-89.6l.83.44-.1-.94a47.63,47.63,0,0,1-.31-5.44,48.11,48.11,0,0,1,91.26-21.25l.22.44.45-.22a47.68,47.68,0,0,1,21.21-4.92,48.1,48.1,0,0,1,37,78.82l-.17.21.08.26a48.11,48.11,0,0,1-69.07,56.69l-.48-.26-.22.5A48.18,48.18,0,0,1,2176.57,518.32Z"/><path d="M2188.36,331.85a47.33,47.33,0,0,1,42.71,26.57l.44.89.9-.44a47.14,47.14,0,0,1,21-4.87A47.6,47.6,0,0,1,2290,432l-.35.42.17.52a47.61,47.61,0,0,1-68.36,56.1l-1-.52-.44,1a47.61,47.61,0,0,1-90.85-14.14l-.12-1.11-1.09.24a47.6,47.6,0,1,1,11.58-88.67l1.66.87-.21-1.87a48.64,48.64,0,0,1-.3-5.38,47.65,47.65,0,0,1,47.6-47.6m0-1a48.6,48.6,0,0,0-48.6,48.6,50,50,0,0,0,.31,5.5,48.6,48.6,0,1,0-22.47,91.7,49.16,49.16,0,0,0,10.65-1.17A48.61,48.61,0,0,0,2221,489.92a48.62,48.62,0,0,0,69.79-57.28A48.6,48.6,0,0,0,2232,358a48.59,48.59,0,0,0-43.61-27.13Z"/><path class="cls-1" d="M107.57,923.32a48,48,0,0,1-47.82-42.9l-.06-.55-.55.12a48.1,48.1,0,1,1,11.7-89.6l.83.44-.1-.94a47.63,47.63,0,0,1-.31-5.44,48.11,48.11,0,0,1,91.26-21.25l.22.44.45-.22a47.68,47.68,0,0,1,21.21-4.92,48.1,48.1,0,0,1,37,78.82l-.17.21.08.26a48.11,48.11,0,0,1-69.07,56.69l-.48-.26-.22.5A48.18,48.18,0,0,1,107.57,923.32Z"/><path d="M119.36,736.85a47.33,47.33,0,0,1,42.71,26.57l.44.89.9-.44a47.14,47.14,0,0,1,21-4.87A47.6,47.6,0,0,1,221,837l-.35.42.17.52A47.61,47.61,0,0,1,152.49,894l-1-.52-.44,1a47.61,47.61,0,0,1-90.85-14.14l-.12-1.11L59,879.5a47.6,47.6,0,1,1,11.58-88.67l1.66.87-.21-1.87a48.64,48.64,0,0,1-.3-5.38,47.65,47.65,0,0,1,47.6-47.6m0-1a48.6,48.6,0,0,0-48.6,48.6,50,50,0,0,0,.31,5.5,48.6,48.6,0,1,0-22.47,91.7,49.16,49.16,0,0,0,10.65-1.17A48.61,48.61,0,0,0,152,894.92a48.62,48.62,0,0,0,69.79-57.28A48.6,48.6,0,0,0,163,763a48.59,48.59,0,0,0-43.61-27.13Z"/><path class="cls-1" d="M656.3,735.48a67.23,67.23,0,0,1-66.47-56.15l-.1-.55-.54.15a67.86,67.86,0,0,1-14.66,2.52c-1.38.09-2.77.13-4.15.13a67.5,67.5,0,0,1-4-134.88c1.38-.08,2.77-.13,4.14-.13A66.79,66.79,0,0,1,598,552.43l.86.39-.16-.93a70.26,70.26,0,0,1-.9-7.6,67.58,67.58,0,0,1,63.29-71.46c1.38-.08,2.78-.12,4.15-.12a67.64,67.64,0,0,1,58.59,34.06l.25.44.43-.25a66.78,66.78,0,0,1,29.29-8.69c1.38-.09,2.78-.13,4.15-.13a67.5,67.5,0,0,1,54.4,107.39l-.17.22.1.25a67.54,67.54,0,0,1-58.91,91.66c-1.38.08-2.77.13-4.14.13a66.8,66.8,0,0,1-28.89-6.52l-.49-.23-.19.51a67.59,67.59,0,0,1-59.18,43.8C659.07,735.43,657.68,735.48,656.3,735.48Z"/><path d="M665.21,472.21v1A67.12,67.12,0,0,1,723.36,507l.5.87.87-.49a66.23,66.23,0,0,1,29.07-8.63c1.37-.09,2.76-.13,4.12-.13a67,67,0,0,1,54,106.59l-.32.44.2.51a67.21,67.21,0,0,1,4.34,20.05,67,67,0,0,1-62.82,70.93c-1.37.08-2.75.12-4.11.12a66.19,66.19,0,0,1-28.67-6.46l-1-.47-.38,1a67.09,67.09,0,0,1-58.74,43.48c-1.37.08-2.75.13-4.12.13a67,67,0,0,1-66-55.74l-.19-1.1-1.07.31A67.65,67.65,0,0,1,574.5,681c-1.37.09-2.75.13-4.12.13a67,67,0,0,1-4-133.88c1.37-.08,2.75-.13,4.11-.13a66.35,66.35,0,0,1,27.27,5.82l1.71.77-.32-1.86a67,67,0,0,1,61.93-78.47c1.37-.08,2.76-.12,4.12-.12v-1m0,0c-1.38,0-2.78,0-4.18.12a68,68,0,0,0-63.76,72,71.21,71.21,0,0,0,.9,7.66,67.55,67.55,0,0,0-27.67-5.91c-1.38,0-2.77,0-4.17.13a68,68,0,0,0,4,135.88c1.39,0,2.78,0,4.18-.13a68.21,68.21,0,0,0,14.77-2.54,68,68,0,0,0,67,56.57c1.39,0,2.78-.05,4.18-.13a68,68,0,0,0,59.62-44.13,67.46,67.46,0,0,0,29.1,6.56q2.07,0,4.17-.12a68.05,68.05,0,0,0,59.35-92.34,68,68,0,0,0-54.8-108.18c-1.38,0-2.77,0-4.18.13a67.73,67.73,0,0,0-29.51,8.76,68,68,0,0,0-59-34.32Z"/><path class="cls-1" d="M367.54,399.92a85.89,85.89,0,0,1-69-34.9l-.38-.52-.41.49a85.79,85.79,0,0,1-65.78,30.88,85.77,85.77,0,0,1-84.18-69.6l-.08-.44-.45,0c-2.21.17-4.47.26-6.7.26a86.15,86.15,0,0,1-77.13-48.35,85.63,85.63,0,0,1,77-122.91c1.2,0,2.42,0,3.61.07l.59,0-.07-.59A85.62,85.62,0,0,1,276.61,72.45l.63.41.14-.74A85.89,85.89,0,0,1,324.4,10a84.78,84.78,0,0,1,37.21-8.56,86.17,86.17,0,0,1,77.14,48.35l.27.59.51-.2c1.69-1,3.38-1.85,5-2.64A84.82,84.82,0,0,1,481.77,39a85.65,85.65,0,0,1,68.77,136.74l-.25.34.28.3a85.61,85.61,0,0,1-96.76,137l-.71-.3v.76a86.08,86.08,0,0,1-48.36,77.55A84.65,84.65,0,0,1,367.54,399.92Z"/><path d="M361.62.94v1A85.09,85.09,0,0,1,438.3,50l0,.07.05.1.46,1,.94-.53c1.68-1,3.36-1.84,5-2.63a84.25,84.25,0,0,1,37-8.51,85.14,85.14,0,0,1,68.36,135.94l-.49.67.57.61a85.14,85.14,0,0,1-25.12,134.79A84.9,84.9,0,0,1,454,312.88l-1.41-.61v1.54a85.11,85.11,0,0,1-48.07,77.09,84.32,84.32,0,0,1-37,8.52,85.39,85.39,0,0,1-68.64-34.7l-.76-1-.81,1a85.16,85.16,0,0,1-149.08-38.49l-.17-.88-.89.07c-2.21.17-4.45.26-6.67.26A85.13,85.13,0,0,1,103.4,163.87a84.38,84.38,0,0,1,37-8.5c1.19,0,2.39,0,3.58.07l1.18.05-.14-1.17A85.13,85.13,0,0,1,276.33,72.86l1.27.84.27-1.5a85,85,0,0,1,46.74-61.75,84.32,84.32,0,0,1,37-8.51v-1m0,0A86.18,86.18,0,0,0,276.88,72,86.14,86.14,0,0,0,144,154.44c-1.2-.05-2.41-.07-3.62-.07a86.13,86.13,0,0,0,.12,172.26c2.25,0,4.49-.09,6.74-.26A86.16,86.16,0,0,0,298.1,365.31,86.14,86.14,0,0,0,453.61,313.8,86.15,86.15,0,0,0,550.94,176,86.12,86.12,0,0,0,444.33,47.09q-2.58,1.26-5.05,2.66l-.08-.18A86.11,86.11,0,0,0,361.62.94Z"/><path class="cls-1" d="M1824,442.14a109.74,109.74,0,0,1-107.33-86.91l-.11-.51-.5.13A110.39,110.39,0,0,1,1690,358a108.88,108.88,0,0,1-78.19-32.75A110.13,110.13,0,0,1,1593.72,301l-.18-.34-.38.1a110.26,110.26,0,0,1-27.67,3.53,109.71,109.71,0,1,1,0-219.42,110.75,110.75,0,0,1,23,2.42l.49.1.1-.48a109.71,109.71,0,0,1,216.13,10.24l.08.66.61-.25a109.72,109.72,0,0,1,118.48,179.76c-1,1-2.06,2-3.31,3.13l-.29.26.18.34a110.56,110.56,0,0,1,11.6,67.39A109.73,109.73,0,0,1,1824,442.14Z"/><path d="M1696.22,0V1a109.21,109.21,0,0,1,108.44,96.18l.15,1.31L1806,98A109.22,109.22,0,0,1,1924,276.93c-1,1-2.07,2-3.3,3.11l-.58.53.37.68A110,110,0,0,1,1932,348.34a109.22,109.22,0,0,1-214.88,6.78l-.22-1-1,.24a109.91,109.91,0,0,1-25.94,3.11,109.39,109.39,0,0,1-95.81-56.74l-.37-.68-.76.19a109.7,109.7,0,0,1-27.54,3.52,109.21,109.21,0,0,1,0-218.42,109.7,109.7,0,0,1,22.86,2.41l1,.21.21-1a109.21,109.21,0,0,1,106.7-86V0m0,0a110.23,110.23,0,0,0-107.69,86.77,110.21,110.21,0,1,0,4.75,214.44,110.33,110.33,0,0,0,122.86,54.12,110.22,110.22,0,1,0,205.2-74.54c1.13-1,2.24-2.07,3.34-3.14a110.24,110.24,0,0,0-119-180.59A110.22,110.22,0,0,0,1696.23,0Z"/><path class="cls-1" d="M2040.49,1025.25a93.76,93.76,0,0,1-85.68-56l-.2-.47-.47.22a94.76,94.76,0,0,1-40.41,9.12,93.91,93.91,0,0,1-71.21-32.89l-.26-.3-.34.17a94.49,94.49,0,0,1-41.7,9.74,93.69,93.69,0,0,1,.17-187.38h.95V767a93.69,93.69,0,0,1,182.48-29l.21.62.55-.37A93.7,93.7,0,0,1,2114.9,867.91c-.65,1-1.38,2-2.23,3.18l-.23.32.25.3A94.47,94.47,0,0,1,2134.11,926a93.71,93.71,0,0,1-93.61,99.22Z"/><path d="M1895.12,674.66a93.21,93.21,0,0,1,88.23,63.47l.42,1.24,1.08-.73a93.2,93.2,0,0,1,129.63,129c-.66,1-1.38,2-2.21,3.17l-.46.63.49.6a93.91,93.91,0,0,1,21.31,54,93.2,93.2,0,0,1-178.34,43l-.41-1-.93.45a94.26,94.26,0,0,1-40.2,9.07,93.44,93.44,0,0,1-70.83-32.72l-.51-.59-.7.35a94.14,94.14,0,0,1-41.47,9.68,93.19,93.19,0,0,1,.17-186.38h1.45v-1a93.21,93.21,0,0,1,93.28-92.34m0-1A94.23,94.23,0,0,0,1800.84,767h-.45a94.19,94.19,0,1,0,41.75,178.59,94.21,94.21,0,0,0,112.22,23.9,94.2,94.2,0,1,0,158.71-98.09q1.16-1.57,2.25-3.21a94.2,94.2,0,0,0-131-130.37,94.21,94.21,0,0,0-89.18-64.15Z"/></svg>