<svg id="Layer_1" data-name="Layer 1" xmlns="http://www.w3.org/2000/svg" viewBox="0 0 2560 1565.5"><defs><style>.cls-1{fill:#aed8ed;}.cls-2{fill:#35bc55;}.cls-3,.cls-6{fill:#2ca345;}.cls-4,.cls-5{fill:#6cd883;}.cls-13,.cls-15,.cls-5,.cls-6{stroke:#000;stroke-miterlimit:10;}.cls-7{fill:#d8b34a;}.cls-13,.cls-8{fill:#7c5e1c;}.cls-9{fill:#bf9837;}.cls-10{fill:#ffd15f;}.cls-11{fill:#fff;}.cls-12{fill:#0b845c;}.cls-14,.cls-15{fill:#2ebf5e;}.cls-16{fill:#cc5615;}</style></defs><rect class="cls-1" width="2560" height="1565"/><polygon class="cls-2" points="5.55 1564.5 821.14 1416.49 1738.94 1416.5 2554.45 1564.5 5.55 1564.5"/><path d="M1738.85,1417l810,147H11.11l810-147h917.7m.09-1H821.06L0,1565H2560l-821.06-149Z"/><polygon class="cls-3" points="5.56 1564.5 821.15 1416.49 1276.38 1416.5 451.54 1564.5 5.56 1564.5"/><path d="M1270.76,1417,451.49,1564H11.11l810-147h449.61m11.24-1H821.06L0,1565H451.58L1282,1416Z"/><polygon class="cls-4" points="457.2 1564.5 1280.56 1416.77 1137.78 1564.5 457.2 1564.5"/><path d="M1279.13,1417.53,1137.57,1564H462.82l816.31-146.47M1282,1416,451.58,1565H1138l144-149Z"/><polygon class="cls-3" points="1139.17 1564.5 1281.5 1417.24 1281.5 1564.5 1139.17 1564.5"/><path d="M1281,1418.47V1564H1140.35L1281,1418.47m1-2.47-144,149h144V1416Z"/><polygon class="cls-4" points="2112.42 1564.5 1287.62 1416.5 1738.94 1416.5 2554.44 1564.5 2112.42 1564.5"/><path d="M1738.85,1417l810,147H2112.51l-819.27-147h445.61m.09-1H1282l830.42,149H2560l-821.06-149Z"/><polygon class="cls-5" points="1426.01 1565 1282 1565 1282 1416 1426.01 1565"/><polygon class="cls-6" points="2112.42 1565 1426.01 1565 1282 1416 2112.42 1565"/><polygon class="cls-7" points="1409.41 922.9 1336.43 793.24 1236.67 793.24 1163.68 922.9 1089.94 922.9 1207 676.53 1366.09 676.53 1483.15 922.9 1409.41 922.9"/><path d="M1365.77,677,1482.36,922.4H1409.7L1337,793.25l-.29-.51H1236.37l-.28.51-72.7,129.15h-72.66L1207.32,677h158.45m.64-1H1206.69L1089.15,923.4H1164l73-129.66h99.17l73,129.66h74.82L1366.41,676Z"/><polygon class="cls-8" points="1370.84 684.19 1397.36 684.05 1382.6 708.96 1370.84 684.19"/><path d="M1396.47,684.55l-13.82,23.34-11-23.2,24.85-.14m1.76-1-28.18.16,12.5,26.32,15.68-26.48Z"/><polygon class="cls-8" points="1175.59 684.04 1202.33 684.04 1189.27 711.52 1175.59 684.04"/><path d="M1201.54,684.54l-12.28,25.84-12.86-25.84h25.14m1.58-1h-28.34l14.5,29.12,13.84-29.12Z"/><rect class="cls-9" x="1175.32" y="668.56" width="222.45" height="14.63"/><path d="M1397.27,669.06V682.7H1175.82V669.06h221.45m1-1H1174.82V683.7h223.45V668.06Z"/><polygon class="cls-8" points="1451.15 950.1 1502.49 950.07 1467.35 983.11 1451.15 950.1"/><path d="M1501.23,950.57l-33.73,31.71L1452,950.6l49.28,0m2.53-1-53.42,0,16.86,34.33,36.56-34.36Z"/><polygon class="cls-8" points="1070.58 950.08 1124.94 950.41 1109.02 983.13 1070.58 950.08"/><path d="M1071.94,950.59l52.2.31-15.29,31.43-36.91-31.74m-2.72-1,40,34.36,16.55-34-56.52-.34Z"/><rect class="cls-9" x="1069.8" y="923.9" width="433.53" height="25.43"/><path d="M1502.83,924.4v24.43H1070.3V924.4h432.53m1-1H1069.3v26.43h434.53V923.4Z"/><polygon class="cls-8" points="1262.64 228.23 1262.64 222.73 1270.14 222.73 1267.98 237.62 1262.64 228.23"/><path d="M1269.57,223.23l-1.87,12.88-4.56-8v-4.87h6.43m1.15-1h-8.58v6.13l6.13,10.78,2.45-16.91Z"/><polygon class="cls-8" points="1302.87 222.73 1310.38 222.73 1310.38 228.23 1305.03 237.62 1302.87 222.73"/><path d="M1309.88,223.23v4.87l-4.56,8-1.87-12.88h6.43m1-1h-8.59l2.46,16.91,6.13-10.78v-6.13Z"/><polygon class="cls-7" points="1316.19 667.56 1291.61 479.98 1281.48 479.98 1256.9 667.56 1207.73 667.56 1271.16 220.13 1301.93 220.13 1365.36 667.56 1316.19 667.56"/><path d="M1301.5,220.63l63.28,446.43h-48.15l-24.46-186.72-.12-.87h-11l-.11.87-24.46,186.72h-48.16l63.29-446.43h29.9m.86-1h-31.63l-63.57,448.43h50.18l24.58-187.59h9.25l24.58,187.59h50.18l-63.57-448.43Z"/><rect class="cls-9" x="1262.49" y="208.25" width="48.04" height="14.33"/><path d="M1310,208.75v13.33h-47V208.75h47m1-1h-49v15.33h49V207.75Z"/><polygon class="cls-10" points="1277.05 200.28 1284.67 171.85 1288.04 171.85 1295.66 200.28 1277.05 200.28"/><path d="M1287.65,172.36l7.36,27.42H1277.7l7.36-27.42h2.59m.77-1h-4.13l-7.9,29.42h19.93l-7.9-29.42Z"/><ellipse class="cls-11" cx="1237" cy="386.68" rx="26.32" ry="51.3"/><path d="M1237,335.88c14.24,0,25.83,22.79,25.83,50.8s-11.59,50.8-25.83,50.8-25.82-22.79-25.82-50.8,11.59-50.8,25.82-50.8m0-1c-14.81,0-26.82,23.19-26.82,51.8s12,51.8,26.82,51.8,26.83-23.19,26.83-51.8-12-51.8-26.83-51.8Z"/><ellipse cx="1243.6" cy="389.53" rx="20.23" ry="30.79"/><path class="cls-11" d="M1325.59,438c-14.51,0-26.32-23-26.32-51.3s11.81-51.3,26.32-51.3,26.32,23,26.32,51.3S1340.1,438,1325.59,438Z"/><path d="M1325.59,335.88c14.24,0,25.82,22.79,25.82,50.8s-11.58,50.8-25.82,50.8-25.82-22.79-25.82-50.8,11.58-50.8,25.82-50.8m0-1c-14.81,0-26.82,23.19-26.82,51.8s12,51.8,26.82,51.8,26.82-23.19,26.82-51.8-12-51.8-26.82-51.8Z"/><ellipse cx="1332.18" cy="389.53" rx="20.23" ry="30.79"/><path d="M1287.74,464.54h-2.16a13.8,13.8,0,0,1-13.8-13.81V439.55h29.76v11.18A13.8,13.8,0,0,1,1287.74,464.54Z"/><path class="cls-11" d="M1286.79,448.22a6.42,6.42,0,0,1-6.41-6.41v-1.62h12.82v1.62A6.41,6.41,0,0,1,1286.79,448.22Z"/><path d="M1292.7,440.69v1.12a5.91,5.91,0,0,1-11.82,0v-1.12h11.82m1-1h-13.82v2.12a6.91,6.91,0,0,0,13.82,0v-2.12Z"/><polygon class="cls-7" points="1267.29 207.56 1273.5 199.5 1299.21 199.5 1305.42 207.56 1267.29 207.56"/><path d="M1299,200l5.43,7.06h-36.09l5.43-7.06H1299m.49-1h-26.21l-7,9.06h40.15l-7-9.06Z"/><path class="cls-7" d="M856.94,1415.5l261.93-465.24h338.34l261.93,465.24-232.79.08-46-241.25,0-.06c-4.18-8.76-7.36-17-10.45-24.91-8.43-21.75-15.72-40.53-38.65-54.36A199.68,199.68,0,0,0,1288,1066c-35.78,0-65.77,9.46-91.7,28.93-23.81,17.87-43.61,43.81-60.53,79.3l0,.06-46,241.25Z"/><path d="M1456.92,950.76,1718.29,1415l-231.52.08-46-240.78,0-.13-.06-.12c-4.17-8.74-7.35-16.94-10.43-24.88-8.47-21.82-15.79-40.68-38.87-54.6a200.19,200.19,0,0,0-103.38-29,164.63,164.63,0,0,0-50.47,7.49,140.94,140.94,0,0,0-41.53,21.54c-23.87,17.92-43.72,43.92-60.68,79.48l-.06.12,0,.13-46,240.78L857.79,1415l261.38-464.24h337.75m.58-1H1118.58L856.08,1416l234.06.08,46.12-241.6c32-67,78.44-107.94,151.78-107.94a198.76,198.76,0,0,1,102.87,28.88c30.87,18.63,32.92,45.54,48.91,79.06l46.12,241.6L1720,1416,1457.5,949.76Z"/><path class="cls-12" d="M.5,964.46l984.36,245.09A83.77,83.77,0,0,1,1048.5,1291v124.6L.5,1564.42Z"/><path d="M1,965.1,984.74,1210A83.28,83.28,0,0,1,1048,1291v124.16L1,1563.85V965.1m-1-1.28V1565l1049-149V1291a84.42,84.42,0,0,0-64-81.91L0,963.82Z"/><path class="cls-12" d="M1511.5,1415.57v-119.9a89.78,89.78,0,0,1,68.2-87.26l979.8-244v600Z"/><path d="M2559,965.1v598.75L1512,1415.13V1295.67a89.27,89.27,0,0,1,67.82-86.77L2559,965.1m1-1.28-980.42,244.11a90.42,90.42,0,0,0-68.58,87.74V1416l1049,149V963.82Z"/><polygon class="cls-8" points="1309.3 667.5 1290.47 484.71 1283.74 480.5 1290.56 480.5 1315.43 667.5 1309.3 667.5"/><path d="M1290.12,481l.42,3.16h0l-5-3.15h4.63m2.09,15.65L1314.86,667h-5.11l-17.54-170.35M1291,480h-9l8,5,18.85,183H1316l-25-188Z"/><polygon class="cls-13" points="1236.5 793.5 1336.5 793.5 1409.12 923.4 1378.05 923.4 1328.5 804.5 1236.5 793.5"/><path class="cls-13" d="M1288.5,1066.5s162.28-17,148.14,349.5l48.86.5-46-242S1429.5,1061.5,1288.5,1066.5Z"/><path class="cls-11" d="M1327.13,173c-9.13-.7-18.29-1.72-27.2-3a.76.76,0,0,1-.71-.88,1.08,1.08,0,0,1,1-1.07l.18,0c8.82,1.3,17.74,2.3,26.51,3a1,1,0,0,1,1.09,1,1.12,1.12,0,0,1-.33.79.79.79,0,0,1-.54.25Z"/><path class="cls-11" d="M1300.27,168.52h.1c8.83,1.3,17.76,2.31,26.54,3,.15,0,.62.08.63.47a.66.66,0,0,1-.19.43.3.3,0,0,1-.18.1h0c-9.11-.69-18.25-1.72-27.17-3-.17,0-.31-.07-.29-.35s.19-.61.56-.61m0-1c-1.71,0-2.24,2.68-.42,2.95q13.58,2,27.24,3h.08a1.51,1.51,0,0,0-.18-3q-13.29-1-26.47-3l-.25,0Z"/><path class="cls-11" d="M1286.46,160.18a.92.92,0,0,1-1-1V145.69a1,1,0,0,1,2,0v13.54a.91.91,0,0,1-.29.71,1.13,1.13,0,0,1-.71.24Z"/><path class="cls-11" d="M1286.46,145.24c.23,0,.5.08.5.45v13.54c0,.37-.27.45-.5.45s-.5-.08-.5-.45V145.69c0-.37.27-.45.5-.45m0-1a1.42,1.42,0,0,0-1.5,1.45v13.54a1.5,1.5,0,0,0,3,0V145.69a1.42,1.42,0,0,0-1.5-1.45Z"/><path class="cls-11" d="M1286.78,135.93a.92.92,0,0,1-1-1V123a.91.91,0,0,1,1-1,.92.92,0,0,1,1,1v12a.89.89,0,0,1-.3.71,1.1,1.1,0,0,1-.7.24Z"/><path class="cls-11" d="M1286.77,122.56c.23,0,.51.08.51.45v12c0,.37-.28.45-.5.45s-.5-.08-.5-.45V123c0-.37.27-.45.49-.45m0-1a1.41,1.41,0,0,0-1.49,1.45v12a1.5,1.5,0,0,0,3,0V123a1.43,1.43,0,0,0-1.51-1.45Z"/><path class="cls-11" d="M1299.54,161.83a1,1,0,0,1-.5-.12,1.05,1.05,0,0,1-.34-1.41,148.7,148.7,0,0,1,10-17.93.94.94,0,0,1,.82-.46,1.17,1.17,0,0,1,1,.57.78.78,0,0,1-.08.86,150.1,150.1,0,0,0-10,18,.91.91,0,0,1-.84.44Z"/><path class="cls-11" d="M1309.5,142.41a.72.72,0,0,1,.57.31c0,.05.08.15,0,.35a147.68,147.68,0,0,0-10.09,18.11.45.45,0,0,1-.39.15.58.58,0,0,1-.25-.05c-.38-.22-.17-.71-.14-.77a146.25,146.25,0,0,1,9.95-17.86.44.44,0,0,1,.4-.24m0-1a1.44,1.44,0,0,0-1.24.69,147,147,0,0,0-10,18,1.53,1.53,0,0,0,.53,2,1.51,1.51,0,0,0,.76.19,1.4,1.4,0,0,0,1.3-.73,147.7,147.7,0,0,1,10-18,1.45,1.45,0,0,0-1.35-2.2Z"/><path class="cls-11" d="M1312.07,139.33a1.63,1.63,0,0,1-.31,0,1,1,0,0,1-.58-.46,1,1,0,0,1-.12-.71,16.88,16.88,0,0,1,3.5-5.46.92.92,0,0,1,.67-.28,1.16,1.16,0,0,1,.76.3.84.84,0,0,1,.26.62,1.08,1.08,0,0,1-.29.78c-.35.37-.68.74-1,1.12l-.25.33c-.13.19-.27.38-.39.58a15.79,15.79,0,0,0-1.35,2.5,1.09,1.09,0,0,1-.46.59A.83.83,0,0,1,1312.07,139.33Z"/><path class="cls-11" d="M1315.23,132.89a.63.63,0,0,1,.42.17.37.37,0,0,1,.1.27.59.59,0,0,1-.15.42c-.36.38-.7.76-1,1.14l0,.05,0,0,0,0,0,.05-.16.21-.41.6a16.37,16.37,0,0,0-1.38,2.58.69.69,0,0,1-.28.37.34.34,0,0,1-.19,0,.68.68,0,0,1-.2,0,.57.57,0,0,1-.26-.22.81.81,0,0,1-.08-.28,16.54,16.54,0,0,1,3.39-5.3.41.41,0,0,1,.31-.12m0-1a1.45,1.45,0,0,0-1,.43,17.37,17.37,0,0,0-3.6,5.62,1.47,1.47,0,0,0,.15,1.16,1.56,1.56,0,0,0,.9.69,1.87,1.87,0,0,0,.42,0,1.28,1.28,0,0,0,.73-.2,1.62,1.62,0,0,0,.65-.81,15.74,15.74,0,0,1,1.3-2.43l.39-.56.18-.25,0-.06c.3-.37.62-.73,1-1.08a1.51,1.51,0,0,0,0-2.12,1.61,1.61,0,0,0-1.09-.43Zm-1.77,6.92h0v0l0-.05Z"/><path class="cls-11" d="M1274.7,161.16a.89.89,0,0,1-.58-.24c-8.77-7.28-17.91-14.36-27.16-21a.79.79,0,0,1-.34-1,1.15,1.15,0,0,1,1-.8.94.94,0,0,1,.58.21c9.23,6.67,18.35,13.74,27.11,21a.91.91,0,0,1,.3,1.08,1.08,1.08,0,0,1-.93.75Z"/><path class="cls-11" d="M1247.64,138.61a.53.53,0,0,1,.29.11c9.22,6.67,18.33,13.73,27.08,21a.42.42,0,0,1,.16.52.62.62,0,0,1-.47.42.43.43,0,0,1-.26-.12c-8.78-7.29-17.93-14.38-27.19-21.08-.19-.14-.2-.25-.15-.4a.64.64,0,0,1,.54-.45m0-1a1.5,1.5,0,0,0-1,2.66q13.92,10.06,27.13,21a1.43,1.43,0,0,0,.9.35,1.55,1.55,0,0,0,1-2.71q-13.22-11-27.13-21a1.48,1.48,0,0,0-.88-.3Z"/><path class="cls-11" d="M1263.48,171.25h-.16l-3.62-.47c-2.63-.34-5.27-.68-7.91-1a44,44,0,0,0-4.88-.33,19.31,19.31,0,0,0-6,.87,1,1,0,0,1-.33.06,1,1,0,0,1-.21-2,20.67,20.67,0,0,1,6.45-.92,43.14,43.14,0,0,1,4.81.3c2.87.33,5.79.71,8.62,1.07l3.69.48a.7.7,0,0,1,.68.8,1.18,1.18,0,0,1-1.12,1.13Z"/><path class="cls-11" d="M1246.8,168a41.89,41.89,0,0,1,4.75.3c2.88.32,5.8.7,8.62,1.07l3.68.47c.2,0,.26.07.25.28a.69.69,0,0,1-.62.66h-.09l-3.63-.46c-2.59-.34-5.27-.68-7.91-1a42.26,42.26,0,0,0-4.94-.34,19.68,19.68,0,0,0-6.17.89.45.45,0,0,1-.18,0c-.25,0-.36-.32-.38-.45a.45.45,0,0,1,.33-.56,19.94,19.94,0,0,1,6.29-.9m0-1a20.89,20.89,0,0,0-6.6.95,1.53,1.53,0,0,0,.36,3,1.5,1.5,0,0,0,.49-.09,18.85,18.85,0,0,1,5.86-.84,40.93,40.93,0,0,1,4.82.33c3.85.45,7.69,1,11.53,1.45l.22,0c1.73,0,2.34-2.7.5-2.93-4.1-.52-8.21-1.08-12.32-1.54a43.89,43.89,0,0,0-4.86-.31Z"/><path class="cls-11" d="M1272.76,171.84l-.21,0-1-.14c-.75-.07-1.49-.11-2.21-.11s-1.21,0-1.81.08h0a1,1,0,0,1-1-1,1.11,1.11,0,0,1,.27-.68,1.16,1.16,0,0,1,.75-.32c.57,0,1.16-.07,1.75-.07a23,23,0,0,1,3.74.32.77.77,0,0,1,.51.35,1.2,1.2,0,0,1,.18.88,1,1,0,0,1-1,.72Z"/><path class="cls-11" d="M1269.36,170.07a22,22,0,0,1,3.66.32s.1,0,.18.13a.74.74,0,0,1,.1.5c0,.25-.37.32-.54.32h-.13c-.32-.06-.65-.1-1-.14a21.34,21.34,0,0,0-2.25-.12c-.62,0-1.24,0-1.87.08-.19,0-.4-.28-.42-.54a.64.64,0,0,1,.14-.31.6.6,0,0,1,.42-.16c.56,0,1.14-.07,1.71-.07m0-1c-.6,0-1.2,0-1.8.08a1.57,1.57,0,0,0-1.06.47,1.53,1.53,0,0,0-.41,1,1.55,1.55,0,0,0,1.42,1.48h.11a17.14,17.14,0,0,1,1.76-.08c.72,0,1.43,0,2.15.11l.94.13a1.36,1.36,0,0,0,.29,0,1.48,1.48,0,0,0,1.52-1.12,1.52,1.52,0,0,0-1.1-1.82,23.27,23.27,0,0,0-3.82-.33Z"/><rect class="cls-13" x="342.09" y="1471.88" width="18.23" height="67.62"/><path class="cls-14" d="M432.65,1496.66A34,34,0,0,1,406,1483.87l-.39-.49-.39.49a34.18,34.18,0,0,1-53.32,0l-.39-.49-.39.49a34.18,34.18,0,0,1-53.32,0l-.39-.49-.39.49a34.19,34.19,0,1,1-39-53.28l.48-.18-.2-.48a34.21,34.21,0,0,1,24.82-46.87l.51-.1-.12-.5a34.42,34.42,0,0,1-.86-7.61,34.06,34.06,0,0,1,30.84-34l.76-.07-.37-.66a34.2,34.2,0,1,1,60,0l-.37.66.76.07a34.06,34.06,0,0,1,30.84,34,34.42,34.42,0,0,1-.86,7.61l-.12.5.51.1a34.19,34.19,0,0,1,25.68,44.6l-.24.71.74,0c.61,0,1.22-.06,1.84-.06a34.2,34.2,0,0,1,0,68.39Z"/><path d="M343.86,1290a33.7,33.7,0,0,1,29.57,49.85l-.73,1.33,1.51.14a33.7,33.7,0,0,1,30.39,33.53,34,34,0,0,1-.85,7.5l-.23,1,1,.2a33.76,33.76,0,0,1,27.12,33,33.42,33.42,0,0,1-1.82,10.9l-.47,1.4,1.47-.08c.63,0,1.24,0,1.82,0a33.7,33.7,0,1,1-26.27,54.79l-.78-1-.78,1a33.69,33.69,0,0,1-52.54,0l-.78-1-.78,1a33.69,33.69,0,0,1-52.54,0l-.78-1-.78,1a33.69,33.69,0,1,1-38.46-52.5l1-.37-.4-1a33.72,33.72,0,0,1,24.46-46.19l1-.2-.23-1a34,34,0,0,1-.85-7.5,33.7,33.7,0,0,1,30.39-33.53l1.51-.14-.73-1.33A33.7,33.7,0,0,1,343.86,1290m0-1a34.71,34.71,0,0,0-30.46,51.33A34.64,34.64,0,0,0,283,1382.57a34.71,34.71,0,0,0-25.19,47.56,34.69,34.69,0,1,0,39.6,54,34.68,34.68,0,0,0,54.1,0,34.68,34.68,0,0,0,54.1,0,34.69,34.69,0,1,0,27-56.41c-.63,0-1.25,0-1.87.06a34.69,34.69,0,0,0-26-45.26,34.69,34.69,0,0,0-30.42-42.24A34.71,34.71,0,0,0,343.86,1289Z"/><path class="cls-15" d="M402.33,1448.2a15.49,15.49,0,0,1,.33,3.14,15.08,15.08,0,0,1-28.81,6.25"/><path class="cls-15" d="M370.58,1363.53a15.41,15.41,0,0,1,.32,3.14,15.08,15.08,0,0,1-28.81,6.24"/><path class="cls-15" d="M314.73,1424.55a15.23,15.23,0,0,1-2.27,2.19,15.08,15.08,0,0,1-22.7-18.81"/><rect class="cls-13" x="654.86" y="1437.88" width="12.54" height="46.51"/><path class="cls-14" d="M717.14,1454.77a23.24,23.24,0,0,1-18.21-8.74l-.39-.48-.39.48a23.35,23.35,0,0,1-36.43,0l-.39-.48-.39.48a23.35,23.35,0,0,1-36.43,0l-.39-.48-.39.48a23.36,23.36,0,1,1-26.66-36.4l.48-.18-.2-.48a23.06,23.06,0,0,1-1.85-9.1A23.4,23.4,0,0,1,614.3,1377l.51-.1-.11-.51a23.34,23.34,0,0,1,20.48-28.44l.75-.08-.36-.66a23.36,23.36,0,1,1,41,0l-.37.66.76.08a23.34,23.34,0,0,1,20.48,28.44l-.12.51.51.1a23.4,23.4,0,0,1,18.8,22.91,23.09,23.09,0,0,1-1.26,7.55l-.24.71.74,0c.42,0,.84,0,1.26,0a23.36,23.36,0,0,1,0,46.72Z"/><path d="M656.07,1313.11a22.87,22.87,0,0,1,20.07,33.82l-.73,1.33,1.51.14a22.78,22.78,0,0,1,20.62,22.75,23.1,23.1,0,0,1-.58,5.09l-.23,1,1,.2a22.89,22.89,0,0,1,18.4,22.42,22.65,22.65,0,0,1-1.23,7.39l-.48,1.4,1.48-.07c.42,0,.84,0,1.23,0a22.86,22.86,0,1,1-17.83,37.17l-.77-1-.78,1a22.86,22.86,0,0,1-35.65,0l-.78-1-.78,1a22.86,22.86,0,0,1-35.65,0l-.78-1-.78,1a22.86,22.86,0,1,1-26.09-35.62l1-.37-.4-1a22.64,22.64,0,0,1-1.81-8.91,22.89,22.89,0,0,1,18.4-22.42l1-.2-.23-1a23.09,23.09,0,0,1-.57-5.09,22.77,22.77,0,0,1,20.62-22.75l1.5-.14-.72-1.33a22.86,22.86,0,0,1,20.06-33.82m0-1a23.86,23.86,0,0,0-20.94,35.3,23.85,23.85,0,0,0-20.92,29A23.88,23.88,0,0,0,595,1399.87a23.63,23.63,0,0,0,1.89,9.3,23.86,23.86,0,1,0,27.23,37.18,23.86,23.86,0,0,0,37.21,0,23.86,23.86,0,0,0,37.21,0,23.86,23.86,0,1,0,18.6-38.8c-.43,0-.86,0-1.28,0a23.88,23.88,0,0,0-17.92-31.13,24.34,24.34,0,0,0,.6-5.31A23.87,23.87,0,0,0,677,1347.41a23.86,23.86,0,0,0-20.94-35.3Z"/><path class="cls-15" d="M696.29,1421.6a10.38,10.38,0,0,1-19.59,6.46"/><path class="cls-15" d="M674.45,1363.37a10.12,10.12,0,0,1,.23,2.15,10.38,10.38,0,0,1-19.82,4.3"/><path class="cls-15" d="M636,1405.33a10.63,10.63,0,0,1-1.56,1.51,10.37,10.37,0,0,1-15.61-12.94"/><rect class="cls-13" x="922.43" y="1419.77" width="8.52" height="31.62"/><path class="cls-14" d="M964.78,1431.09a15.64,15.64,0,0,1-12.26-5.88l-.39-.48-.39.48a15.72,15.72,0,0,1-24.52,0l-.39-.48-.39.48a15.72,15.72,0,0,1-24.52,0l-.39-.48-.39.48a15.72,15.72,0,1,1-17.95-24.5l.48-.19-.2-.47a15.73,15.73,0,0,1,11.42-21.55l.5-.1-.11-.5a15.47,15.47,0,0,1-.4-3.5,15.66,15.66,0,0,1,14.18-15.65l.76-.07-.37-.67a15.73,15.73,0,1,1,27.61,0l-.37.67.76.07a15.66,15.66,0,0,1,14.18,15.65,15.92,15.92,0,0,1-.4,3.5l-.11.5.5.1A15.71,15.71,0,0,1,963.43,1399l-.24.7.74,0c.28,0,.56,0,.85,0a15.72,15.72,0,1,1,0,31.44Z"/><path d="M923.25,1335.25a15.23,15.23,0,0,1,13.37,22.52l-.73,1.33,1.51.15a15.19,15.19,0,0,1,13.34,18.54l-.22,1,1,.2A15.22,15.22,0,0,1,963,1398.85l-.48,1.4,1.48-.08c.27,0,.54,0,.82,0a15.22,15.22,0,1,1-11.87,24.75l-.78-1-.78,1a15.23,15.23,0,0,1-23.74,0l-.78-1-.78,1a15.23,15.23,0,0,1-23.74,0l-.78-1-.78,1a15.22,15.22,0,1,1-17.38-23.72l1-.38-.4-1A15.23,15.23,0,0,1,895,1379l1-.2-.22-1a15.19,15.19,0,0,1,13.34-18.54l1.51-.15-.73-1.33a15.23,15.23,0,0,1,13.36-22.52m0-1a16.23,16.23,0,0,0-14.24,24,16.22,16.22,0,0,0-14.63,16.15,16.51,16.51,0,0,0,.41,3.61A16.23,16.23,0,0,0,883,1400.25a16.22,16.22,0,1,0,18.52,25.27,16.22,16.22,0,0,0,25.3,0,16.22,16.22,0,0,0,25.3,0,16.22,16.22,0,1,0,12.65-26.37c-.3,0-.59,0-.88,0a16,16,0,0,0,.88-5.25A16.23,16.23,0,0,0,951.72,1378a16.51,16.51,0,0,0,.41-3.61,16.23,16.23,0,0,0-14.64-16.15,16.22,16.22,0,0,0-14.24-24Z"/><path class="cls-15" d="M950.6,1408.7a7.05,7.05,0,0,1-13.32,4.39"/><path class="cls-15" d="M935.75,1369.1a7.19,7.19,0,0,1,.15,1.47,7.05,7.05,0,0,1-13.47,2.92"/><path class="cls-15" d="M909.63,1397.64a6.85,6.85,0,0,1-1.06,1,7.05,7.05,0,0,1-10.61-8.8"/><rect class="cls-13" x="2198.68" y="1471.88" width="18.23" height="67.62" transform="translate(4415.59 3011.38) rotate(-180)"/><path class="cls-14" d="M2288.65,1496.66a34,34,0,0,1-26.66-12.79l-.39-.49-.39.49a34.18,34.18,0,0,1-53.32,0l-.39-.49-.39.49a34.18,34.18,0,0,1-53.32,0l-.39-.49-.39.49a34.19,34.19,0,1,1-26.66-55.6c.62,0,1.23,0,1.84.06l.74,0-.24-.71a34.19,34.19,0,0,1,25.68-44.6l.51-.1-.12-.5a34.42,34.42,0,0,1-.86-7.61,34.06,34.06,0,0,1,30.84-34l.76-.07-.37-.66a34.2,34.2,0,1,1,60,0l-.37.66.76.07a34.06,34.06,0,0,1,30.84,34,34.42,34.42,0,0,1-.86,7.61l-.12.5.51.1a34.21,34.21,0,0,1,24.82,46.87l-.2.48.48.18a34.19,34.19,0,0,1-12.37,66.07Z"/><path d="M2215.14,1290a33.7,33.7,0,0,1,29.58,49.85l-.73,1.33,1.51.14a33.7,33.7,0,0,1,30.39,33.53,34,34,0,0,1-.85,7.5l-.23,1,1,.2a33.72,33.72,0,0,1,24.46,46.19l-.4,1,1,.37a33.69,33.69,0,1,1-38.46,52.5l-.78-1-.78,1a33.69,33.69,0,0,1-52.54,0l-.78-1-.78,1a33.69,33.69,0,0,1-52.54,0l-.78-1-.78,1a33.69,33.69,0,1,1-26.27-54.79c.58,0,1.19,0,1.82,0l1.47.08-.47-1.4a33.42,33.42,0,0,1-1.82-10.9,33.76,33.76,0,0,1,27.12-33l1-.2-.23-1a34,34,0,0,1-.85-7.5,33.7,33.7,0,0,1,30.39-33.53l1.51-.14-.73-1.33a33.7,33.7,0,0,1,29.57-49.85m0-1a34.71,34.71,0,0,0-30.45,51.33,34.69,34.69,0,0,0-30.42,42.24,34.69,34.69,0,0,0-26.05,45.26c-.62,0-1.24-.06-1.87-.06a34.7,34.7,0,1,0,27.05,56.41,34.68,34.68,0,0,0,54.1,0,34.68,34.68,0,0,0,54.1,0,34.69,34.69,0,1,0,39.6-54,34.71,34.71,0,0,0-25.19-47.56,34.64,34.64,0,0,0-30.41-42.24,34.71,34.71,0,0,0-30.46-51.33Z"/><path class="cls-15" d="M2156.67,1448.2a15.49,15.49,0,0,0-.33,3.14,15.08,15.08,0,0,0,28.81,6.25"/><path class="cls-15" d="M2188.42,1363.53a15.41,15.41,0,0,0-.32,3.14,15.08,15.08,0,0,0,28.81,6.24"/><path class="cls-15" d="M2244.27,1424.55a15.23,15.23,0,0,0,2.27,2.19,15.08,15.08,0,0,0,22.7-18.81"/><rect class="cls-13" x="1891.6" y="1437.88" width="12.54" height="46.51" transform="translate(3795.75 2922.27) rotate(-180)"/><path class="cls-14" d="M1953.48,1454.77a23.24,23.24,0,0,1-18.21-8.74l-.39-.48-.39.48a23.35,23.35,0,0,1-36.43,0l-.39-.48-.39.48a23.35,23.35,0,0,1-36.43,0l-.39-.48-.39.48a23.36,23.36,0,1,1-18.21-38c.42,0,.84,0,1.26,0l.74,0-.24-.71a23.09,23.09,0,0,1-1.26-7.55,23.4,23.4,0,0,1,18.8-22.91l.51-.1-.12-.51a23.34,23.34,0,0,1,20.48-28.44l.76-.08-.37-.66a23.37,23.37,0,1,1,41,0l-.36.66.75.08a23.34,23.34,0,0,1,20.48,28.44l-.11.51.51.1a23.4,23.4,0,0,1,18.8,22.91,23.06,23.06,0,0,1-1.85,9.1l-.2.48.48.18a23.36,23.36,0,0,1-8.45,45.14Z"/><path d="M1902.93,1313.11a22.86,22.86,0,0,1,20.06,33.82l-.72,1.33,1.5.14a22.77,22.77,0,0,1,20.62,22.75,23.09,23.09,0,0,1-.57,5.09l-.23,1,1,.2a22.89,22.89,0,0,1,18.4,22.42,22.64,22.64,0,0,1-1.81,8.91l-.4,1,1,.37a22.86,22.86,0,1,1-26.09,35.62l-.78-1-.78,1a22.86,22.86,0,0,1-35.65,0l-.78-1-.78,1a22.86,22.86,0,0,1-35.65,0l-.78-1-.77,1a22.86,22.86,0,1,1-17.83-37.17c.39,0,.81,0,1.23,0l1.48.07-.48-1.4a22.65,22.65,0,0,1-1.23-7.39,22.89,22.89,0,0,1,18.4-22.42l1-.2-.23-1a23.1,23.1,0,0,1-.58-5.09,22.78,22.78,0,0,1,20.62-22.75l1.51-.14-.73-1.33a22.87,22.87,0,0,1,20.07-33.82m0-1a23.86,23.86,0,0,0-20.94,35.3,23.87,23.87,0,0,0-21.53,23.74,24.34,24.34,0,0,0,.6,5.31,23.88,23.88,0,0,0-17.92,31.13c-.42,0-.85,0-1.28,0a23.86,23.86,0,1,0,18.6,38.8,23.86,23.86,0,0,0,37.21,0,23.86,23.86,0,0,0,37.21,0,23.86,23.86,0,1,0,27.23-37.18,23.63,23.63,0,0,0,1.89-9.3,23.88,23.88,0,0,0-19.21-23.41,23.85,23.85,0,0,0-20.92-29,23.86,23.86,0,0,0-20.94-35.3Z"/><path class="cls-15" d="M1862.71,1421.6a10.38,10.38,0,0,0,19.59,6.46"/><path class="cls-15" d="M1884.55,1363.37a10.12,10.12,0,0,0-.23,2.15,10.38,10.38,0,0,0,19.82,4.3"/><path class="cls-15" d="M1923,1405.33a10.63,10.63,0,0,0,1.56,1.51,10.37,10.37,0,0,0,15.61-12.94"/><rect class="cls-13" x="1628.05" y="1419.77" width="8.52" height="31.62" transform="translate(3264.62 2871.16) rotate(-180)"/><path class="cls-14" d="M1670.12,1431.09a15.64,15.64,0,0,1-12.26-5.88l-.39-.48-.39.48a15.72,15.72,0,0,1-24.52,0l-.39-.48-.39.48a15.72,15.72,0,0,1-24.52,0l-.39-.48-.39.48a15.72,15.72,0,1,1-12.26-25.56c.29,0,.57,0,.85,0l.74,0-.24-.7a15.71,15.71,0,0,1,11.81-20.51l.5-.1-.11-.5a15.92,15.92,0,0,1-.4-3.5,15.66,15.66,0,0,1,14.18-15.65l.76-.07-.37-.67a15.73,15.73,0,1,1,27.61,0l-.37.67.76.07a15.66,15.66,0,0,1,14.18,15.65,15.47,15.47,0,0,1-.4,3.5l-.11.5.5.1a15.73,15.73,0,0,1,11.42,21.55l-.2.47.48.19a15.72,15.72,0,0,1-5.69,30.38Z"/><path d="M1635.75,1335.25a15.23,15.23,0,0,1,13.36,22.52l-.73,1.33,1.51.15a15.19,15.19,0,0,1,13.34,18.54l-.22,1,1,.2a15.23,15.23,0,0,1,11,20.86l-.4,1,1,.38a15.22,15.22,0,1,1-17.38,23.72l-.78-1-.78,1a15.23,15.23,0,0,1-23.74,0l-.78-1-.78,1a15.23,15.23,0,0,1-23.74,0l-.78-1-.78,1a15.22,15.22,0,1,1-11.87-24.75c.28,0,.55,0,.82,0l1.48.08-.48-1.4a15.22,15.22,0,0,1,11.44-19.86l1-.2-.22-1a15.19,15.19,0,0,1,13.34-18.54l1.51-.15-.73-1.33a15.23,15.23,0,0,1,13.37-22.52m0-1a16.22,16.22,0,0,0-14.24,24,16.23,16.23,0,0,0-14.64,16.15,16.51,16.51,0,0,0,.41,3.61,16.23,16.23,0,0,0-13.06,15.91,16,16,0,0,0,.88,5.25c-.29,0-.58,0-.88,0a16.22,16.22,0,1,0,12.65,26.37,16.22,16.22,0,0,0,25.3,0,16.22,16.22,0,0,0,25.3,0,16.22,16.22,0,1,0,18.52-25.27,16.23,16.23,0,0,0-11.78-22.24,16.51,16.51,0,0,0,.41-3.61,16.22,16.22,0,0,0-14.63-16.15,16.23,16.23,0,0,0-14.24-24Z"/><path class="cls-15" d="M1608.4,1408.7a7.05,7.05,0,0,0,13.32,4.39"/><path class="cls-15" d="M1623.25,1369.1a7.19,7.19,0,0,0-.15,1.47,7.05,7.05,0,0,0,13.47,2.92"/><path class="cls-15" d="M1649.37,1397.64a6.85,6.85,0,0,0,1.06,1,7.05,7.05,0,0,0,10.61-8.8"/><path class="cls-16" d="M1356.15,1426.57a5.28,5.28,0,0,1-4.94-3.78,16,16,0,0,1-.34-4.44c-.67-7.66-1-16.37,3.07-23.74a16.16,16.16,0,0,1,2.27-3.15l.4-.44-.5-.32a8.65,8.65,0,0,1-1.69-1.45,13.39,13.39,0,0,1-2.94-9.07,12.42,12.42,0,0,1,3-8.3c1.89-2,4.67-2.38,6.68-2.38l.78,0c6.13.3,10.2,3.42,11.16,8.55a13,13,0,0,1-.5,6.47l0,.08v.07a7.49,7.49,0,0,1-2,4.94l-.36.39.41.34a13.73,13.73,0,0,1,3.28,3.87c2.08,3.62,3.16,8,4.09,12.21.87,4,2,8.86,1.84,13.26-.15,5.79-5,6.63-9.62,6.69Z"/><path d="M1361.15,1370l.76,0c3.45.17,9.43,1.45,10.69,8.14a12.68,12.68,0,0,1-.48,6.23l0,.14v.15a7,7,0,0,1-1.89,4.61l-.72.78.83.67a13.71,13.71,0,0,1,3.16,3.74c2,3.55,3.11,7.91,4,12.07.87,3.92,2,8.79,1.83,13.14s-2.76,6.12-9.12,6.2h-.27l-13.77.18a4.75,4.75,0,0,1-4.45-3.39,15.74,15.74,0,0,1-.34-4.3v-.14c-.66-7.52-1-16.14,3-23.39a16.27,16.27,0,0,1,2.19-3l.81-.88-1-.64a7.89,7.89,0,0,1-1.58-1.36,12.91,12.91,0,0,1-2.82-8.73,11.87,11.87,0,0,1,2.85-8c1.77-1.84,4.41-2.23,6.32-2.23m0-1a9.5,9.5,0,0,0-7,2.54,12.9,12.9,0,0,0-3.13,8.63,14,14,0,0,0,3.07,9.41,9.15,9.15,0,0,0,1.79,1.54,16.73,16.73,0,0,0-2.33,3.25c-4.09,7.32-3.86,15.86-3.14,24a16.66,16.66,0,0,0,.35,4.56,5.76,5.76,0,0,0,5.43,4.18h.06l14-.18c5-.07,10-1.06,10.11-7.18.12-4.36-.91-9.13-1.86-13.38s-2-8.65-4.13-12.35a14.37,14.37,0,0,0-3.4-4,8,8,0,0,0,2.15-5.27,13.7,13.7,0,0,0,.51-6.72c-1.12-6-5.93-8.68-11.62-9l-.81,0Z"/><path class="cls-16" d="M1043.78,1427.5a6.16,6.16,0,0,1-5.76-4.41,19.31,19.31,0,0,1-.4-5.12c-.77-8.81-1.19-18.84,3.55-27.34a19,19,0,0,1,2.62-3.64l.4-.43-.5-.33a9.42,9.42,0,0,1-2-1.67,15.43,15.43,0,0,1-3.41-10.48,14.36,14.36,0,0,1,3.46-9.6c2.19-2.28,5.41-2.76,7.73-2.76l.91,0c7.08.35,11.78,4,12.9,9.9a15.22,15.22,0,0,1-.57,7.48l0,.07v.08a8.58,8.58,0,0,1-2.34,5.72l-.36.39.41.34a16.13,16.13,0,0,1,3.79,4.47c2.39,4.17,3.64,9.24,4.71,14.07,1,4.54,2.25,10.2,2.12,15.26-.18,6.72-5.73,7.7-11.13,7.77Z"/><path d="M1049.52,1362.22l.88,0c9.36.47,11.81,6.15,12.44,9.49a14.69,14.69,0,0,1-.56,7.23l0,.14v.15a8.1,8.1,0,0,1-2.21,5.4l-.73.79.83.67a15.47,15.47,0,0,1,3.68,4.33c2.35,4.11,3.59,9.13,4.65,13.93,1,4.51,2.24,10.13,2.11,15.14s-3.22,7.18-10.64,7.28l-16.09.21h0a5.61,5.61,0,0,1-5.27-4,18.31,18.31,0,0,1-.39-5v-.15c-.76-8.66-1.18-18.6,3.49-27a18.45,18.45,0,0,1,2.54-3.55l.81-.87-1-.65a8.71,8.71,0,0,1-1.85-1.59,14.94,14.94,0,0,1-3.28-10.14,13.8,13.8,0,0,1,3.32-9.25c2.07-2.16,5.15-2.61,7.37-2.61m0-1c-2.94,0-6,.72-8.09,2.92-2.47,2.56-3.56,6.44-3.6,9.93,0,3.76,1,8,3.53,10.82a10.2,10.2,0,0,0,2.06,1.76,19.46,19.46,0,0,0-2.68,3.74c-4.71,8.42-4.43,18.24-3.62,27.55a19,19,0,0,0,.42,5.25,6.6,6.6,0,0,0,6.24,4.81h.07l16.08-.21c5.77-.08,11.44-1.22,11.63-8.25.13-5-1-10.5-2.14-15.39s-2.31-9.94-4.75-14.21a16.64,16.64,0,0,0-3.92-4.61,9.18,9.18,0,0,0,2.48-6,15.79,15.79,0,0,0,.59-7.74c-1.29-6.85-6.82-10-13.37-10.3l-.93,0Z"/><path class="cls-16" d="M1137.91,1486.91a5.74,5.74,0,0,1-5.37-4.12,17,17,0,0,1-.37-4.8c-.73-8.27-1.13-17.68,3.32-25.65a18.09,18.09,0,0,1,2.45-3.41l.4-.43-.49-.32a8.89,8.89,0,0,1-1.83-1.57,14.54,14.54,0,0,1-3.2-9.82,13.51,13.51,0,0,1,3.24-9c2-2.13,5.07-2.58,7.24-2.58l.85,0c6.64.33,11,3.71,12.08,9.26a14.27,14.27,0,0,1-.53,7l0,.07v.08a8.07,8.07,0,0,1-2.19,5.35l-.36.4.41.33a15.26,15.26,0,0,1,3.56,4.19c2.24,3.91,3.4,8.66,4.41,13.2.94,4.26,2.12,9.57,2,14.32-.17,6.28-5.36,7.19-10.42,7.26Z"/><path d="M1143.31,1425.72l.82,0c8.74.43,11,5.73,11.61,8.86a13.58,13.58,0,0,1-.52,6.75l0,.15v.15a7.56,7.56,0,0,1-2.06,5l-.72.79.83.67a14.7,14.7,0,0,1,3.43,4c2.21,3.85,3.36,8.56,4.36,13.06.94,4.23,2.11,9.5,2,14.2s-3,6.68-9.93,6.77l-15.1.2h0a5.2,5.2,0,0,1-4.88-3.73,16.77,16.77,0,0,1-.37-4.66v-.14c-.71-8.13-1.11-17.45,3.27-25.29a17.13,17.13,0,0,1,2.38-3.32l.8-.87-1-.64a8.47,8.47,0,0,1-1.73-1.49,14,14,0,0,1-3.07-9.48,13,13,0,0,1,3.1-8.64c1.93-2,4.81-2.43,6.89-2.43m0-1a10.3,10.3,0,0,0-7.61,2.74c-2.31,2.4-3.33,6-3.38,9.32,0,3.53.92,7.48,3.32,10.16a9.51,9.51,0,0,0,1.93,1.65,18.54,18.54,0,0,0-2.51,3.51c-4.42,7.91-4.16,17.13-3.39,25.87a17.82,17.82,0,0,0,.38,4.93,6.22,6.22,0,0,0,5.86,4.51h.07l15.1-.2c5.41-.07,10.73-1.14,10.91-7.75.13-4.71-1-9.85-2-14.44s-2.18-9.34-4.47-13.34a15.67,15.67,0,0,0-3.67-4.33,8.59,8.59,0,0,0,2.32-5.68,14.8,14.8,0,0,0,.56-7.26c-1.21-6.43-6.41-9.36-12.55-9.67l-.87,0Z"/><path class="cls-16" d="M1497.17,1520.79a5.67,5.67,0,0,1-5.31-4.07,17.31,17.31,0,0,1-.37-4.74c-.71-8.19-1.11-17.51,3.3-25.39a17.32,17.32,0,0,1,2.42-3.38l.4-.43-.5-.32a9.22,9.22,0,0,1-1.81-1.55,14.42,14.42,0,0,1-3.16-9.72,13.32,13.32,0,0,1,3.21-8.89c2-2.11,5-2.56,7.17-2.56l.83,0c6.57.33,10.92,3.67,12,9.17a14.18,14.18,0,0,1-.53,6.93l0,.07v.08a8,8,0,0,1-2.17,5.3l-.36.39.41.34a14.91,14.91,0,0,1,3.52,4.14c2.22,3.87,3.37,8.58,4.37,13.06.93,4.22,2.1,9.47,2,14.18-.17,6.21-5.3,7.11-10.31,7.18Z"/><path d="M1502.51,1460.24l.82,0c8.64.43,10.91,5.67,11.49,8.76a13.54,13.54,0,0,1-.52,6.68l0,.15v.15a7.52,7.52,0,0,1-2,5l-.73.78.83.67a14.57,14.57,0,0,1,3.4,4c2.18,3.81,3.32,8.47,4.31,12.92.93,4.19,2.09,9.41,2,14.06s-3,6.6-9.82,6.69l-7.47.1-7.47.09h-.06a5.15,5.15,0,0,1-4.82-3.69,16.75,16.75,0,0,1-.36-4.6v-.15c-.71-8-1.1-17.27,3.23-25a17.5,17.5,0,0,1,2.36-3.28l.8-.87-1-.64a8.58,8.58,0,0,1-1.71-1.47,13.82,13.82,0,0,1-3-9.37,12.78,12.78,0,0,1,3.06-8.55c1.91-2,4.75-2.41,6.8-2.41m0-1A10.22,10.22,0,0,0,1495,1462a13.79,13.79,0,0,0-3.34,9.23c-.05,3.5.9,7.4,3.28,10.06a9.4,9.4,0,0,0,1.91,1.64,17.85,17.85,0,0,0-2.49,3.47c-4.37,7.82-4.12,17-3.36,25.6a17.82,17.82,0,0,0,.38,4.88,6.16,6.16,0,0,0,5.8,4.47h.07l15-.19c5.35-.07,10.63-1.13,10.8-7.67.13-4.66-1-9.75-2-14.3s-2.16-9.24-4.42-13.2a15.52,15.52,0,0,0-3.64-4.28,8.49,8.49,0,0,0,2.3-5.63,14.6,14.6,0,0,0,.55-7.18c-1.2-6.37-6.34-9.27-12.42-9.58l-.87,0Z"/></svg>