<svg id="Layer_1" data-name="Layer 1" xmlns="http://www.w3.org/2000/svg" viewBox="0 0 238.75 212.24"><defs><style>.cls-1{fill:#fff;}.cls-1,.cls-2{stroke:#231f20;stroke-miterlimit:10;}.cls-2{fill:#ee8e8c;}</style></defs><path class="cls-1" d="M238.25,117.5A45.25,45.25,0,0,1,201,162a82.28,82.28,0,0,1-20.63,37.83c-8.12,8.49-21.16,10.45-31.09,4.17a45.86,45.86,0,0,0-11.61-5.16c-14.15-4.14-26-2.61-37.83,7l-.14.11a24.88,24.88,0,0,1-31.86-.12,82.23,82.23,0,0,1-28.93-55.38,45.24,45.24,0,0,1,6.27-89.95A45.24,45.24,0,0,1,127,23a45.24,45.24,0,1,1,75.08,50.16A45.26,45.26,0,0,1,238.25,117.5Z"/><ellipse class="cls-2" cx="166.1" cy="47.32" rx="26.88" ry="20.49" transform="translate(71.65 191.92) rotate(-72.75)"/><ellipse class="cls-2" cx="89.85" cy="48.04" rx="20.49" ry="26.88" transform="translate(-11.88 42.43) rotate(-24.98)"/><ellipse class="cls-2" cx="41.31" cy="106.12" rx="20.49" ry="26.88" transform="translate(-71.37 122.63) rotate(-77.07)"/><ellipse class="cls-2" cx="201.21" cy="117.95" rx="26.88" ry="20.49" transform="translate(-26.11 65.79) rotate(-17.46)"/><path class="cls-2" d="M147.55,180.52a57.43,57.43,0,0,0-37.39,3c-15.12,1.21-28.25-8.7-29.33-22.13l-1-13a23.25,23.25,0,0,1,8.4-19.51q29.72-25.38,70.22-5.34c7.9,3.91,13,11.11,13.67,19.19L173,154C174.06,167.44,162.67,179.31,147.55,180.52Z"/></svg>