<svg id="Layer_1" data-name="Layer 1" xmlns="http://www.w3.org/2000/svg" viewBox="0 0 890.79 482.05"><defs><style>.cls-1{fill:#c6b999;}</style></defs><polygon class="cls-1" points="195.26 312.95 159.22 271.48 104.32 273.79 71.9 318.16 80.77 350.63 58.99 345.37 15.61 379.09 14.93 434.04 57.46 468.83 111.18 457.27 114.35 450.88 152.47 482.06 206.19 470.49 230.64 421.29 207.42 371.49 185.45 366.19 195.26 312.95"/><polygon class="cls-1" points="810.84 89.08 731.16 87.09 721.78 98.27 674.38 35.7 594.7 33.72 543.46 94.78 551.21 133.11 495.73 131.73 444.49 192.79 460.29 270.92 531.22 307.28 585.64 282.73 592.66 317.46 663.6 353.82 736.25 321.04 752.91 255.6 766.65 262.64 839.31 229.86 858.97 152.62 810.84 89.08"/></svg>