<svg id="Layer_1" data-name="Layer 1" xmlns="http://www.w3.org/2000/svg" viewBox="0 0 167.61 240.44"><defs><style>.cls-1{fill:#f6ba2e;}.cls-2{fill:#efe8d3;}</style></defs><rect class="cls-1" x="42.59" y="25.2" width="125.03" height="190.04"/><rect class="cls-2" x="47.76" y="29.48" width="114.69" height="181.48"/><polygon class="cls-1" points="167.62 215.24 95.81 240.44 95.81 0 167.62 25.2 167.62 215.24"/><circle class="cls-1" cx="69.42" cy="100.41" r="10.69"/><path class="cls-1" d="M71.19,115.22l-14-4.12H31.75l-12.7,13.48s-1.67,8.69,6.69,8.69l10.69-11.08h11l-8.35,29.13-10,15H3.68c-5.24,3-4.56,6.25,0,9.69H34.76l12.7-13.7,15,15v24.39c4.37,4,8.46,4.91,12,0V170.37L58.73,155l8.45-19.72,5,11.36H92.91c4.84-4.43,4.08-8.76,0-13H83.22Z"/></svg>