<svg id="Layer_1" data-name="Layer 1" xmlns="http://www.w3.org/2000/svg" viewBox="0 0 32 32.03"><defs><style>.cls-1{fill:#303d21;}.cls-2{fill:#f6ba2e;}</style></defs><polygon class="cls-1" points="32 13.51 32 32.03 0 32.03 0 13.51 16 0 32 13.51"/><path class="cls-2" d="M15.43,23.48h0a3.47,3.47,0,0,1,3.47,3.47V32a0,0,0,0,1,0,0H12a0,0,0,0,1,0,0V26.95a3.47,3.47,0,0,1,3.47-3.47Z"/><path class="cls-2" d="M28.7,18.91a10,10,0,0,1-9.07,0V17.39a10.73,10.73,0,0,0,9.07,0Z"/><path class="cls-2" d="M12.37,18.91a10,10,0,0,1-9.07,0V17.39a10.73,10.73,0,0,0,9.07,0Z"/></svg>