<svg id="Layer_1" data-name="Layer 1" xmlns="http://www.w3.org/2000/svg" viewBox="0 0 1773.46 1072.89"><defs><style>.cls-1{fill:#303d21;}.cls-2{font-size:174.5px;fill:#fff;stroke:#231f20;stroke-miterlimit:10;font-family:Gopher-Bold, Gopher;font-weight:700;}.cls-3{fill:#f6ba2e;}</style></defs><polygon class="cls-1" points="1773.46 452.43 1773.46 1072.89 0 1072.89 0 452.43 886.72 0 1773.46 452.43"/><text class="cls-2" transform="translate(148.35 815.38) rotate(-23)">Q</text><text class="cls-2" transform="matrix(0.92, -0.39, 0.39, 0.92, 275.91, 761.24)">U</text><text class="cls-2" transform="matrix(0.92, -0.39, 0.39, 0.92, 378.24, 717.8)">A</text><text class="cls-2" transform="translate(494.2 668.59) rotate(-23)">R</text><text class="cls-2" transform="translate(600.71 623.38) rotate(-23)">A</text><text class="cls-2" transform="translate(716.69 574.16) rotate(-23)">N</text><text class="cls-2" transform="translate(833.78 524.46) rotate(-23)">T</text><text class="cls-2" transform="translate(931.6 482.94) rotate(-23)">I</text><text class="cls-2" transform="translate(972.59 465.54) rotate(-23)">N</text><text class="cls-2" transform="translate(1089.66 415.85) rotate(-23)">E</text><text class="cls-2" transform="translate(964.78 677.61) rotate(28.39)">D</text><text class="cls-2" transform="translate(1075.77 737.59) rotate(28.39)">I</text><text class="cls-2" transform="translate(1114.92 758.74) rotate(28.39)">A</text><text class="cls-2" transform="translate(1225.76 818.64) rotate(28.39)">R</text><text class="cls-2" transform="translate(1326.45 873.06) rotate(28.39)">I</text><text class="cls-2" transform="translate(1365.61 894.22) rotate(28.39)">E</text><text class="cls-2" transform="translate(1458.48 944.41) rotate(28.39)">S</text><polyline class="cls-3" points="533.9 1072.89 525.2 900.48 600.15 790.81 752.54 790.81 827.49 906.66 818.79 1072.89"/></svg>