<svg id="Layer_1" data-name="Layer 1" xmlns="http://www.w3.org/2000/svg" viewBox="0 0 32 32"><defs><style>.cls-1{fill:#efe8d3;stroke:#231f20;stroke-miterlimit:10;}.cls-2{fill:#231f20;}</style></defs><circle class="cls-1" cx="16" cy="16" r="16"/><path class="cls-2" d="M9.55,12.49c-2.58,0-2.58,4,0,4S12.12,12.49,9.55,12.49Z"/><path class="cls-2" d="M22.74,12.09c-2.58,0-2.58,4,0,4S25.31,12.09,22.74,12.09Z"/><path class="cls-2" d="M20.05,20.89a2,2,0,0,0-2.46,1.39.75.75,0,0,1,0,.16v0c-.16.09-.42.19-.09.08a2,2,0,0,1-.65.17c.25,0,.26,0,0,0l-.34,0h-.7c-.23,0-.47,0-.7-.05l-.22,0-.13,0c-.46-.09-.92-.19-1.37-.32l-.67-.23-.11,0L12.45,22,12,21.71l0,0-.12-.11s0,0-.05,0a.31.31,0,0,0,0-.07,2,2,0,0,0-2-1.74,2,2,0,0,0-2,2c.22,3.07,3.39,4.38,6.05,4.81a10.8,10.8,0,0,0,4.35,0,4.4,4.4,0,0,0,3.26-3.15A2,2,0,0,0,20.05,20.89Z"/></svg>