<svg id="Layer_1" data-name="Layer 1" xmlns="http://www.w3.org/2000/svg" viewBox="0 0 883.73 929.31"><defs><style>.cls-1,.cls-3{fill:#f6ba2e;}.cls-2{fill:#303d21;}.cls-3{font-size:93.43px;font-family:Gopher-Bold, Gopher;font-weight:700;}.cls-4{letter-spacing:-0.01em;}.cls-5{letter-spacing:0em;}.cls-6{letter-spacing:0em;}.cls-7{letter-spacing:-0.04em;}</style></defs><rect class="cls-1" width="883.73" height="508.99"/><polygon class="cls-2" points="74.64 0 0 100 0 16.79 12.53 0 74.64 0"/><polygon class="cls-2" points="195.88 0 121.22 100.03 59.11 100.03 133.77 0 195.88 0"/><polygon class="cls-2" points="317.13 0 242.47 100.03 180.36 100.03 255.02 0 317.13 0"/><polygon class="cls-2" points="438.38 0 363.72 100.03 301.6 100.03 376.27 0 438.38 0"/><polygon class="cls-2" points="559.62 0 484.96 100.03 422.85 100.03 497.51 0 559.62 0"/><polygon class="cls-2" points="680.87 0 606.21 100.03 544.1 100.03 618.76 0 680.87 0"/><polygon class="cls-2" points="802.12 0 727.46 100.03 665.34 100.03 740.01 0 802.12 0"/><polygon class="cls-2" points="883.73 0 883.73 53.1 848.7 100.03 786.59 100.03 861.25 0 883.73 0"/><polygon class="cls-2" points="74.64 408.96 0 508.96 0 425.75 12.53 408.96 74.64 408.96"/><polygon class="cls-2" points="195.88 408.96 121.22 508.99 59.11 508.99 133.77 408.96 195.88 408.96"/><polygon class="cls-2" points="317.13 408.96 242.47 508.99 180.36 508.99 255.02 408.96 317.13 408.96"/><polygon class="cls-2" points="438.38 408.96 363.72 508.99 301.6 508.99 376.27 408.96 438.38 408.96"/><polygon class="cls-2" points="559.62 408.96 484.96 508.99 422.85 508.99 497.51 408.96 559.62 408.96"/><polygon class="cls-2" points="680.87 408.96 606.21 508.99 544.1 508.99 618.76 408.96 680.87 408.96"/><polygon class="cls-2" points="802.12 408.96 727.46 508.99 665.34 508.99 740.01 408.96 802.12 408.96"/><polygon class="cls-2" points="883.73 408.96 883.73 462.06 848.7 508.99 786.59 508.99 861.25 408.96 883.73 408.96"/><text class="cls-3" transform="translate(283.32 228.91)">UNDER<tspan x="-214.75" y="112.12">CON</tspan><tspan class="cls-4" x="0.42" y="112.12">S</tspan><tspan class="cls-5" x="57.69" y="112.12">T</tspan><tspan class="cls-6" x="114.59" y="112.12">R</tspan><tspan x="175.69" y="112.12">U</tspan><tspan class="cls-7" x="239.5" y="112.12">C</tspan><tspan x="308.83" y="112.12">TION</tspan></text><rect class="cls-2" x="37.32" y="508.96" width="50.83" height="420.35"/><rect class="cls-2" x="761.97" y="508.96" width="50.83" height="420.35"/></svg>